# xmcd CD database file
#
# Track frame offsets:
#	150
#	20646
#	35451
#	46220
#	61840
#	77840
#	90244
#	107366
#	124233
#
# Disc length: 1872 seconds
#
# Revision: 0
# Processed by: cddbd v1.5.2PL0 Copyright (c) Steve Scherf et al.
# Submitted via: CDex 1.70beta2
#
DISCID=64074e09
DTITLE=Clint Black - The Hard Way
DYEAR=1900
DGENRE=Country
TTITLE0=We Tell Ourselves
TTITLE1=The Hard Way
TTITLE2=The Good Old Days
TTITLE3=Buying Time
TTITLE4=When My Ship Comes In
TTITLE5=A Woman Has Her Way
TTITLE6=Something To Cry About
TTITLE7=Burn One Down
TTITLE8=Wake Up Yesterday
EXTD=
EXTT0=
EXTT1=
EXTT2=
EXTT3=
EXTT4=
EXTT5=
EXTT6=
EXTT7=
EXTT8=
PLAYORDER=
